<svg version="1.1" id="Layer_1" xmlns="http://www.w3.org/2000/svg" xmlns:xlink="http://www.w3.org/1999/xlink" x="0px" y="0px"
	 viewBox="0 0 512.001 512.001" style="enable-background:new 0 0 512.001 512.001;" xml:space="preserve">
<g>
	<g>
		<rect x="170.67" y="128.001" width="170.67" height="192"/>
	</g>
</g>
<g>
	<g>
		<path d="M446.037,21.334H65.963C29.589,21.334,0,50.924,0,87.276v337.451c0,36.352,29.589,65.941,65.963,65.941h380.075
			c36.373,0,65.963-29.589,65.963-65.941V87.276C512,50.924,482.411,21.334,446.037,21.334z M85.333,426.668
			c-11.776,0-21.333-9.557-21.333-21.333s9.557-21.334,21.333-21.334s21.333,9.557,21.333,21.333S97.109,426.668,85.333,426.668z
			 M85.333,170.668c-11.776,0-21.333-9.557-21.333-21.333c0-11.776,9.557-21.334,21.333-21.334s21.333,9.557,21.333,21.333
			S97.109,170.668,85.333,170.668z M298.667,426.668h-85.333c-11.797,0-21.333-9.557-21.333-21.333s9.535-21.334,21.332-21.334
			h85.333c11.797,0,21.333,9.557,21.333,21.333S310.464,426.668,298.667,426.668z M362.667,362.667H149.333
			c-11.797,0-21.333-9.557-21.333-21.333V106.668c0-11.776,9.536-21.333,21.333-21.333h213.333c11.797,0,21.333,9.557,21.333,21.333
			v234.666H384C384,353.11,374.464,362.667,362.667,362.667z M426.667,426.668c-11.776,0-21.333-9.557-21.333-21.333
			s9.557-21.334,21.333-21.334S448,393.558,448,405.334S438.443,426.668,426.667,426.668z M426.667,170.668
			c-11.776,0-21.333-9.557-21.333-21.333c0-11.776,9.557-21.334,21.333-21.334S448,137.558,448,149.334
			C448,161.109,438.443,170.668,426.667,170.668z"/>
	</g>
</g>
</svg>
